<svg width="1024" height="512" viewBox="0 0 1024 512" fill="none" xmlns="http://www.w3.org/2000/svg">
<path d="M780.571 67.5714C780.571 51.7946 793.339 39 809.143 39H922.625C927.268 39 931.018 39.7679 934.321 41.1696C936.911 42.5536 940.839 44.5982 943.607 47.3036C943.607 47.3482 943.607 47.3929 943.696 47.4286C949.232 52.9821 951.196 60.2321 952 67.4821C952 67.5179 952 67.5446 952 67.5714V181.857C952 197.661 939.232 210.429 923.429 210.429C907.625 210.429 894.857 197.661 894.857 181.857V136.589L743.607 287.75C732.446 298.911 714.411 298.911 703.25 287.75C692.089 276.589 692.089 258.554 703.25 247.393L854.411 96.1429H809.143C793.339 96.1429 780.571 83.3482 780.571 67.5714ZM552 124.714C552 93.1518 577.58 67.5714 609.143 67.5714H694.857C710.661 67.5714 723.429 80.3661 723.429 96.1429C723.429 111.946 710.661 124.714 694.857 124.714H609.143V381.857H866.286V296.143C866.286 280.339 879.054 267.571 894.857 267.571C910.661 267.571 923.429 280.339 923.429 296.143V381.857C923.429 413.375 897.804 439 866.286 439H609.143C577.58 439 552 413.375 552 381.857V124.714Z" fill="url(#paint0_linear_101_10)"/>
<path d="M272 439C382.457 439 472 349.457 472 239C472 128.543 382.457 39 272 39C161.543 39 72 128.543 72 239C72 349.457 161.543 439 272 439Z" fill="url(#paint1_linear_101_10)"/>
<path d="M272 431.016C378.039 431.016 464 345.047 464 239C464 132.952 378.039 46.9839 272 46.9839C165.961 46.9839 80 132.952 80 239C80 345.047 165.961 431.016 272 431.016Z" fill="url(#paint2_linear_101_10)"/>
<path fill-rule="evenodd" clip-rule="evenodd" d="M273.374 113.363C238.169 114.202 197.685 122.762 166.619 135.935C149.555 143.171 129.625 154.55 123.637 160.476C117.56 166.489 117.753 173.235 124.049 174.928C128.608 176.154 129.095 176.04 160.779 166.352C179.308 160.687 180.129 160.45 186.777 158.826C222.896 150.004 258.395 146.999 281.071 150.844C308.903 155.564 325.07 170.884 328.775 196.053C331.005 211.209 329.072 238.12 324.249 259.03C317.063 290.183 304.749 312.932 286.179 329.362C271.833 342.055 252.083 349.482 232.678 349.482C225.207 349.482 220.137 349.24 218.605 348.81C218.09 348.665 217.683 348.663 216.349 348.797C206.171 349.818 196.51 350.112 188.885 349.632C185.651 349.427 185.412 349.451 185.223 349.992C184.634 351.677 187.203 354.994 193.49 360.664C196.039 362.963 199.139 364.867 203.111 366.567C203.731 366.833 205.515 367.718 207.075 368.533C221.391 376.013 237.032 380.024 257.981 381.589C296.609 384.473 328.307 377.473 356.055 359.929C387.595 339.988 412.047 305.266 420.719 268.102C427.706 238.161 425.351 203.489 414.627 178.378C394.851 132.078 350.215 111.534 273.374 113.363ZM231.286 171.637C221.501 172.775 213.891 178.348 209.094 187.89C204.638 196.752 201.394 212.063 198.932 235.855C195.758 266.529 192.973 273.842 184.627 273.428C179.171 273.158 175.375 269.945 171.535 262.345C165.051 249.514 163.395 235.218 165.761 212.48C167.896 191.97 167.727 190.531 163.031 189.247C156.559 187.476 134.545 188.842 129.529 191.325C124.842 193.646 124.637 197.056 128.355 210.825C138.771 249.401 159.152 290.013 180.228 314.194C200.818 337.817 219.405 344.247 238.948 334.509C253.636 327.191 260.659 309.936 265.543 269.161C268.133 247.544 269.055 242.27 271.313 236.196C273.829 229.426 275.991 227.724 283.185 226.849C289.236 226.113 290.623 225.208 290.792 221.884C291.077 216.293 280.47 200.272 269.309 189.436C255.394 175.926 243.257 170.245 231.286 171.637Z" fill="url(#paint3_linear_101_10)"/>
<defs>
<linearGradient id="paint0_linear_101_10" x1="552" y1="39" x2="952" y2="439" gradientUnits="userSpaceOnUse">
<stop stop-color="#22D3FD"/>
<stop offset="0.0001" stop-color="#B523FF"/>
<stop offset="0.5" stop-color="#22D3FD"/>
<stop offset="0.96875" stop-color="#B721FF"/>
</linearGradient>
<linearGradient id="paint1_linear_101_10" x1="114" y1="117" x2="410" y2="369" gradientUnits="userSpaceOnUse">
<stop stop-color="#AC2FFF"/>
<stop offset="0.520833" stop-color="#21D4FD"/>
<stop offset="1" stop-color="#B721FF"/>
</linearGradient>
<linearGradient id="paint2_linear_101_10" x1="120.32" y1="121.87" x2="404.5" y2="363.787" gradientUnits="userSpaceOnUse">
<stop stop-color="white"/>
<stop offset="1" stop-color="#F2F2F2"/>
</linearGradient>
<linearGradient id="paint3_linear_101_10" x1="206.647" y1="143.358" x2="388.717" y2="382.66" gradientUnits="userSpaceOnUse">
<stop stop-color="#B227FF"/>
<stop offset="0.520833" stop-color="#21D4FD"/>
<stop offset="1" stop-color="#B721FF"/>
</linearGradient>
</defs>
</svg>
